<?xml version="1.0" standalone="no"?>
<!DOCTYPE svg PUBLIC "-//W3C//DTD SVG 20010904//EN"
        "http://www.w3.org/TR/2001/REC-SVG-20010904/DTD/svg10.dtd">
<svg version="1.0" xmlns="http://www.w3.org/2000/svg"
     width="180.000000pt" height="180.000000pt" viewBox="0 0 180.000000 180.000000"
     preserveAspectRatio="xMidYMid meet">

    <g transform="translate(0.000000,180.000000) scale(0.100000,-0.100000)"
       fill="#000000" stroke="none">
        <path d="M158 1790 c-52 -16 -98 -52 -126 -98 l-27 -47 -3 -287 -3 -288 389 0
389 0 6 -52 c14 -117 92 -220 203 -269 174 -78 379 10 433 186 12 37 21 82 21
101 l0 34 181 0 180 0 -3 288 -3 287 -28 47 c-18 31 -44 57 -75 75 l-47 28
-730 2 c-401 1 -742 -2 -757 -7z m986 -244 c137 -61 270 -185 330 -308 19 -40
38 -85 42 -100 6 -27 5 -28 -40 -28 -35 0 -46 4 -46 16 0 26 -41 116 -86 185
-50 79 -134 166 -209 216 -78 51 -75 56 9 19z m51 -337 c86 -70 85 -64 14 -99
-35 -18 -65 -33 -67 -35 -1 -1 27 -64 63 -140 36 -76 65 -139 65 -140 0 -9
-84 -35 -90 -28 -4 4 -33 67 -64 140 l-58 132 -37 -15 c-20 -9 -41 -18 -46
-20 -6 -2 -25 26 -44 63 -18 37 -29 69 -24 71 4 2 58 27 118 57 61 29 112 54
115 54 3 1 28 -17 55 -40z"/>
        <path d="M300 940 c-162 -10 -296 -18 -297 -19 -2 -1 -3 -8 -3 -16 0 -19 28
-19 360 0 140 8 265 15 276 15 15 0 24 -8 28 -26 4 -15 5 -28 3 -30 -2 -3
-647 -94 -664 -94 -2 0 -3 -134 -3 -299 l0 -299 28 -53 c20 -39 41 -62 77 -84
l48 -30 746 0 746 0 47 28 c31 18 57 44 75 75 l28 47 3 221 3 222 -41 -11
c-37 -10 -53 -7 -200 42 -88 29 -160 54 -160 56 0 1 16 14 35 29 l34 26 157
-35 c87 -19 161 -35 166 -35 4 0 8 9 8 19 0 21 0 21 -160 51 -162 30 -153 25
-135 61 18 34 5 33 162 14 69 -9 128 -14 130 -11 3 3 3 11 0 19 -4 10 -42 18
-126 27 -67 7 -123 16 -125 19 -2 3 0 17 5 30 l9 24 120 -7 c117 -7 120 -7
120 13 0 19 -6 21 -72 21 -40 0 -103 3 -139 6 l-67 7 -16 -55 c-17 -61 -87
-163 -132 -195 -142 -100 -301 -117 -450 -49 -108 50 -186 137 -217 241 l-14
50 -49 1 c-27 1 -182 -6 -344 -16z m408 -142 c9 -15 14 -29 12 -31 -3 -2 -118
-27 -257 -55 l-252 -51 -83 38 -83 39 45 7 c184 27 587 82 593 81 5 -1 16 -14
25 -28z m76 -87 l28 -29 -84 -25 c-207 -63 -199 -62 -290 -42 -116 25 -122 31
-52 45 32 7 127 27 209 45 83 19 153 34 156 34 3 1 18 -12 33 -28z m666 -92
c0 -5 -18 -21 -40 -35 l-40 -27 32 -59 c36 -68 32 -91 -20 -96 -28 -3 -33 2
-63 58 -24 42 -38 59 -49 55 -58 -23 -274 -22 -310 0 -5 3 -23 -24 -39 -60
-31 -68 -48 -78 -92 -55 -26 15 -24 34 11 96 l31 53 -30 17 c-29 17 -29 17
-13 51 11 23 21 32 32 29 8 -3 48 -17 88 -31 121 -43 285 -31 391 29 21 12 31
11 68 -1 24 -8 43 -19 43 -24z"/>
    </g>
</svg>
