<?xml version="1.0" standalone="no"?>
<!DOCTYPE svg PUBLIC "-//W3C//DTD SVG 20010904//EN"
        "http://www.w3.org/TR/2001/REC-SVG-20010904/DTD/svg10.dtd">
<svg version="1.0" xmlns="http://www.w3.org/2000/svg"
     width="1280.000000pt" height="1280.000000pt" viewBox="0 0 1280.000000 1280.000000"
     preserveAspectRatio="xMidYMid meet">

    <g transform="translate(0.000000,1280.000000) scale(0.100000,-0.100000)"
       fill="#D42400" stroke="none">
        <path d="M0 6400 l0 -6400 6400 0 6400 0 0 6400 0 6400 -6400 0 -6400 0 0
-6400z m6625 2620 l-80 -80 45 0 c110 -1 304 -21 395 -40 132 -29 238 -70 327
-129 85 -55 136 -109 175 -183 24 -46 28 -64 28 -143 0 -79 -3 -97 -29 -149
-86 -175 -336 -304 -656 -338 -58 -7 -107 -13 -109 -15 -3 -2 60 -70 140 -151
79 -81 214 -219 299 -307 85 -88 234 -241 330 -340 l175 -180 -75 -3 c-90 -4
-269 12 -400 34 -311 53 -588 197 -833 432 -90 87 -629 666 -635 683 -2 5 155
9 370 9 401 0 496 7 616 45 148 47 223 134 230 266 9 162 -71 252 -273 307
-52 14 -162 16 -872 19 -913 4 -853 -2 -770 78 55 52 136 83 252 95 50 5 245
10 435 10 l345 1 195 79 195 78 130 1 130 1 -80 -80z m-2345 -3100 c262 -63
442 -239 469 -457 37 -292 -135 -521 -454 -604 -114 -29 -320 -37 -443 -15
-256 45 -439 179 -507 371 -26 74 -31 218 -11 303 56 225 260 379 561 422 92
14 288 3 385 -20z m1782 0 c56 -12 122 -30 145 -40 l41 -18 -24 -59 c-13 -32
-24 -63 -24 -70 0 -24 -20 -22 -67 7 -105 65 -262 99 -377 82 -217 -34 -345
-195 -346 -434 0 -128 33 -230 100 -302 88 -96 197 -132 370 -123 123 7 188
24 288 78 41 21 76 39 78 39 3 0 4 -37 2 -82 l-3 -83 -57 -23 c-91 -36 -184
-52 -329 -59 -280 -12 -493 53 -634 192 -180 180 -194 488 -31 684 103 123
252 199 454 231 87 14 297 3 414 -20z m1418 0 c118 -24 180 -47 180 -66 0 -15
-50 -144 -55 -144 -2 0 -25 13 -52 30 -106 66 -271 101 -382 82 -215 -38 -340
-198 -341 -434 0 -131 34 -231 104 -306 86 -92 201 -128 371 -119 119 7 185
25 283 78 41 21 76 39 78 39 3 0 4 -37 2 -82 l-3 -83 -57 -23 c-94 -37 -185
-53 -338 -59 -238 -9 -411 34 -558 137 -132 93 -212 246 -212 407 0 297 211
506 568 563 86 14 297 3 412 -20z m-4875 10 c223 -32 344 -101 404 -230 22
-47 26 -68 26 -150 0 -81 -4 -103 -26 -150 -52 -110 -148 -177 -314 -221 -82
-22 -110 -24 -323 -24 l-232 0 0 -147 0 -148 -150 0 -150 0 0 525 0 525 33 1
c17 0 100 6 182 13 187 16 458 19 550 6z m8120 -5 c121 -8 221 -14 223 -15 1
0 2 -236 2 -525 l0 -526 -146 3 -146 3 2 178 1 177 -158 0 -159 0 -74 -91
c-179 -219 -310 -289 -537 -289 l-94 0 188 206 c103 113 190 209 191 215 2 5
-4 9 -12 9 -30 0 -131 58 -168 97 -59 61 -82 123 -82 223 0 72 4 93 26 136 61
116 162 171 388 207 58 10 351 5 555 -8z m-2363 -426 l3 -412 319 412 318 411
149 0 149 0 0 -530 0 -531 -147 3 -148 3 0 407 c0 225 -3 407 -7 405 -4 -1
-134 -166 -289 -367 -155 -201 -297 -384 -316 -407 l-34 -43 -145 0 -144 0 0
530 0 530 145 0 145 0 2 -411z"/>
        <path d="M3913 5812 c-109 -39 -184 -111 -230 -223 -20 -50 -27 -86 -31 -168
-10 -215 59 -361 206 -433 63 -31 72 -33 177 -33 105 0 114 2 177 33 138 68
212 206 212 397 0 197 -82 345 -228 411 -81 37 -205 44 -283 16z"/>
        <path d="M2265 5823 c-33 -2 -75 -5 -92 -8 l-33 -6 0 -259 0 -260 28 -7 c15
-5 95 -8 177 -8 136 0 155 2 202 24 109 49 171 159 160 281 -9 99 -59 170
-149 210 -44 19 -168 41 -213 38 -11 -1 -47 -3 -80 -5z"/>
        <path d="M10311 5819 c-162 -22 -246 -122 -225 -268 13 -87 50 -138 134 -182
43 -23 54 -24 240 -24 l195 0 0 230 0 230 -50 6 c-87 12 -238 16 -294 8z"/>
    </g>
</svg>
