<?xml version="1.0" encoding="utf-8"?>
<!-- Generator: Adobe Illustrator 28.0.0, SVG Export Plug-In . SVG Version: 6.00 Build 0)  -->
<svg version="1.1" id="Слой_1" xmlns="http://www.w3.org/2000/svg" xmlns:xlink="http://www.w3.org/1999/xlink" x="0px"
     y="0px"
     viewBox="0 0 1000 1000" enable-background="new 0 0 1000 1000" xml:space="preserve">
<rect fill-rule="evenodd" clip-rule="evenodd" fill="#BA0C2F" width="1000" height="1000"/>
    <path fill-rule="evenodd" clip-rule="evenodd" fill="#FEFEFE" d="M435.1020203,426.1929626
	c2.5730591-2.104126,5.3692017-3.9073181,8.2783508-5.5516663c50.3796387,36.928009,100.4366455,74.585968,146.267395,117.1449585
	c21.4586792,19.9873047,42.0440674,41.0227051,60.0238037,64.2365723
	c-37.6259766,2.1973877-75.3518066,2.0210571-113.0250854,1.8248901
	c-57.8136292-1.2938232-115.9972229-4.2528076-172.6013489-16.8330688
	c-26.4399109-6.3486938-53.5232239-14.4995728-75.174469-31.6362305
	C335.2342224,509.7334595,383.85495,466.2973938,435.1020203,426.1929626L435.1020203,426.1929626z M593.5280762,223.9557648
	c-30.1599731,12.728241-57.7853394,30.6834412-83.9646912,50.1639862
	c-33.1520691,24.6934204-64.0102234,52.3489075-93.5005493,81.2827454
	c-1.5362244,1.1575012-2.7203369,3.3137207-4.7680664,3.4942932
	c-53.7989197-24.1247864-108.3314514-46.71698-164.0380249-66.0913086
	c47.7862244,28.8590698,94.9692688,58.7068481,141.183136,90.0213318
	c-4.2243652,5.6232605-9.5545349,10.3214111-14.2030029,15.5957031
	c-32.5224304,34.7223206-63.1069031,71.2296143-92.4592285,108.6760864
	c-4.6045227,5.5609436-8.4163208,11.8031921-13.6273804,16.8763123c-5.1861267-22.8351135,0.0485535-46.5084839,8.478241-67.8918152
	c10.7565918-27.2241211,26.1431885-52.3589172,43.298584-75.9916992c2.9847412-4.2214966,6.536438-8.0444336,8.9340515-12.6461182
	c-28.0224609,14.5447388-54.5473022,31.875061-80.0686035,50.4204407
	c-32.6902466,24.4460144-64.2384186,51.8684082-86.3540497,86.581604
	c-14.5770264,23.0780029-23.9663849,51.65271-16.449295,78.8192139c6.300705,22.8061523,25.2551117,39.366333,45.3718414,50.2785645
	c-13.4203491,20.5983887-26.619339,41.3521118-38.958786,62.6234131
	c17.5250854-18.5649414,34.8282166-37.3770752,52.2423248-56.0477905
	c23.11026,9.7333984,47.5643005,15.8656616,72.2503204,19.9387817c43.5271301,7.0072632,87.7397766,8.6834106,131.750824,7.5395508
	c83.9298706-1.74646,167.3678894-13.1494751,249.6893616-29.222229c4.69104-1.0070801,9.37677-2.1771851,14.2177734-2.2529907
	c7.6270142,16.5037231,14.5061646,34.6484985,10.7519531,53.1150513
	c-5.0928345,23.6158447-23.4849854,41.3939819-42.7417603,54.5148315
	c-31.732666,21.1976929-68.0908813,34.434082-104.7976685,44.0789795
	c26.4731445,1.5053711,53.0217896,0.4867554,79.4916382-0.7635498c44.84198-3.0568848,89.9335938-8.8762207,132.6110229-23.4712524
	c25.1140137-8.8652344,49.972168-21.199646,68.0897827-41.2214966
	c11.5029907-12.8410034,15.9459229-31.1266479,12.2902222-47.9000244
	c-5.6994019-29.250061-24.3581543-53.6157227-43.1760254-75.8511353
	c19.7745972-5.1759033,39.1835327-11.9258423,59.0028687-16.7973022c3.5252686-2.8496704,8.4940796-2.8573608,12.5891113-4.5872192
	c-26.4332275,2.6534424-52.84375,5.4506226-79.3034058,7.7813721c-2.2360229-0.1384888-5.1383667,1.0734863-6.7614136-1.0427856
	c-32.0950928-31.8737793-68.265625-59.3162231-105.4849243-84.8938599
	c-58.3363647-39.5775452-119.6690063-74.6998291-182.8078003-106.0278931
	c1.351593-1.9816589,3.4239502-3.2250977,5.4079285-4.4671326c25.6095276-16.5491638,52.3298035-32.0121765,81.5375671-41.2581482
	c19.072937-5.8774414,40.8779907-9.1986694,59.3729248,0.2979126
	c21.0577393,10.4360352,33.7265015,31.6669312,42.6583252,52.5296021
	c14.2476807,35.0888672,19.802002,73.0032043,22.4125366,110.582428
	c20.7017212-52.5548401,35.4855347-108.1914368,36.628418-164.9209595
	c0.4001465-38.7950439-7.1497803-79.9688416-32.3015137-110.7494354
	c-9.6179199-12.8867035-24.6452637-21.3600006-40.6104736-23.1465759
	C635.4555664,209.5971527,613.6115112,215.5311127,593.5280762,223.9557648z"/>
</svg>
